<?xml version="1.0" encoding="UTF-8" standalone="no"?>
<svg width="769px" height="81px" viewBox="0 0 769 81" version="1.1" xmlns="http://www.w3.org/2000/svg" xmlns:xlink="http://www.w3.org/1999/xlink">
    <!-- Generator: Sketch 3.6.1 (26313) - http://www.bohemiancoding.com/sketch -->
    <title>BW logo</title>
    <desc>Created with Sketch.</desc>
    <defs></defs>
    <g id="Page-1" stroke="none" stroke-width="1" fill="none" fill-rule="evenodd">
        <g id="BW-logo">
            <path d="M77.0703125,1.45399999 C77.0703125,1.45399999 96.144,45.066 104.679,64.59 C105.784,62.394 119.405002,32.3056642 119.405002,32.3056642 L106.49,1.636 L117.263671,1.454 C117.263671,1.454 143.241,61.987 144.523,64.766 C145.77,62.017 171.988284,1.45400003 171.988284,1.45400003 L182.617,1.53 L148.394534,79.4306604 L138.986331,79.4306604 C138.986331,79.4306604 129.772,56.243 124.638,44.514 C123.404,47.067 109.412108,79.4306604 109.412108,79.4306604 L100.164062,79.4306604 L67.158,1.454 L77.0703125,1.45399999 Z" id="Fill-5" fill="#D90429"></path>
            <path d="M10.317,34.543 C10.317,34.543 13.019,34.545 14.412,34.588 C22.878,34.848 31.383,35.1 39.821,34.543 C44.309,34.246 48.9949987,34.5478406 52.8609987,32.3608406 C59.4579987,28.6298406 59.315,17.499 52.861,13.499 C50.669,12.141 47.968,10.914 45.47,10.853 C34.052,10.574 22.624,10.731 10.317,10.731 C10.317,17.859 10.317,34.543 10.317,34.543 Z M10.556,71.117 C19.592,71.117 28.061,71.218 36.525,71.074 C40.657,71.004 44.883,70.943 48.884,70.057 C56.336,68.408 60.272,63.712 60.262,57.507 C60.253,51.041 56.728,45.806 48.943,45.183 C36.32,44.172 23.557,44.911 10.556,44.911 L10.556,71.117 L10.556,71.117 Z M69.528,61.5 C67.816,71.513 59.54,78.85 47.314,79.682 C32.884,80.663 0.709000001,80.6709977 0.709000001,80.6709977 L0.709000001,1.20100001 C0.709000001,1.20100001 31.004,0.676 44.31,1.201 C59.359,1.794 68.824,11.596 66.952,24.957 C66.272,29.808 62.733,34.259 60.291,39.323 C67.801,43.872 71.207,51.683 69.528,61.5 Z" id="Fill-7" fill="#D90429"></path>
            <path d="M768.503927,79.6200071 C766.951817,79.6200129 221.432333,79.6200035 221.432333,79.6200035 L255.198684,0.944000002 C255.198684,0.944000002 764.360305,0.943152087 768.503927,0.944000002" id="Fill-11-Copy-3" fill="#D90429"></path>
            <path d="M213.808594,79.6200071 C212.259321,79.6200129 195.432333,79.6200035 195.432333,79.6200035 L229.136962,0.944000002 C229.136962,0.944000002 243.803407,0.943152087 247.939455,0.944000002" id="Fill-11-Copy-2" fill="#D90429"></path>
            <path d="M188.740234,79.6200071 C187.190961,79.6200129 172.432333,79.6200035 172.432333,79.6200035 L208.136962,0.944000002 C208.136962,0.944000002 218.376649,0.943152087 222.512697,0.944000002" id="Fill-11-Copy" fill="#D90429"></path>
            <path d="M165.648014,79.6200014 C164.042232,79.6200071 154.438477,79.6200035 154.438477,79.6200035 L189.372473,0.944000002 C189.372473,0.944000002 196.705278,0.943152087 200.992188,0.944000002" id="Fill-11" fill="#D90429"></path>
            <text id="PEST-SOLUTIONS" font-family="ProximaNova-Semibold, Proxima Nova" font-size="45" font-weight="500" letter-spacing="5.99999809" fill="#FFFFFF">
                <tspan x="280" y="56">PEST SOLUTIONS</tspan>
            </text>
        </g>
    </g>
</svg>