<?xml version="1.0" encoding="UTF-8" standalone="no"?>
<svg width="24px" height="24px" viewBox="0 0 24 24" version="1.1" xmlns="http://www.w3.org/2000/svg" xmlns:xlink="http://www.w3.org/1999/xlink">
    <!-- Generator: Sketch 3.8.1 (29687) - http://www.bohemiancoding.com/sketch -->
    <title>phone-call</title>
    <desc>Created with Sketch.</desc>
    <defs></defs>
    <g id="Page-1" stroke="none" stroke-width="1" fill="none" fill-rule="evenodd">
        <g id="phone-call" fill="#FFFFFF">
            <g id="Group">
                <path d="M17.17,16.154 C16.226,15.21 14.579,15.21 13.635,16.154 L13.25,16.54 C11.178,14.806 9.19,12.818 7.461,10.751 L7.847,10.366 C8.82,9.391 8.82,7.805 7.847,6.83 L5.724,4.708 C4.781,3.765 3.132,3.765 2.189,4.708 L1.024,5.872 C-0.145,7.041 -0.331,8.893 0.583,10.276 C4.005,15.45 8.549,19.994 13.725,23.417 C14.3,23.797 14.968,23.998 15.656,23.998 C16.591,23.998 17.469,23.634 18.127,22.975 L19.292,21.811 C20.266,20.837 20.266,19.251 19.292,18.276 L17.17,16.154 L17.17,16.154 Z M18.585,21.104 L17.419,22.269 C16.604,23.087 15.243,23.224 14.275,22.584 C9.211,19.234 4.765,14.788 1.416,9.725 C0.763,8.738 0.895,7.415 1.73,6.58 L2.894,5.416 C3.177,5.133 3.554,4.978 3.955,4.978 C4.356,4.978 4.732,5.134 5.016,5.416 L7.138,7.537 C7.722,8.123 7.722,9.075 7.138,9.66 L6.431,10.367 C6.249,10.549 6.235,10.839 6.398,11.037 C8.33,13.395 10.6,15.666 12.964,17.603 C13.163,17.766 13.452,17.752 13.634,17.57 L14.341,16.863 C14.907,16.297 15.896,16.297 16.462,16.863 L18.584,18.984 C19.169,19.567 19.169,20.519 18.585,21.104 L18.585,21.104 Z" id="Shape"></path>
                <path d="M12,0 C11.724,0 11.5,0.224 11.5,0.5 C11.5,0.776 11.724,1 12,1 C18.065,1 23,5.935 23,12 C23,12.276 23.224,12.5 23.5,12.5 C23.776,12.5 24,12.276 24,12 C24,5.383 18.617,0 12,0 L12,0 Z" id="Shape"></path>
                <path d="M12,5 C15.86,5 19,8.14 19,12 C19,12.276 19.224,12.5 19.5,12.5 C19.776,12.5 20,12.276 20,12 C20,7.589 16.411,4 12,4 C11.724,4 11.5,4.224 11.5,4.5 C11.5,4.776 11.724,5 12,5 L12,5 Z" id="Shape"></path>
                <path d="M12,9 C13.654,9 15,10.346 15,12 C15,12.276 15.224,12.5 15.5,12.5 C15.776,12.5 16,12.276 16,12 C16,9.794 14.206,8 12,8 C11.724,8 11.5,8.224 11.5,8.5 C11.5,8.776 11.724,9 12,9 L12,9 Z" id="Shape"></path>
            </g>
        </g>
    </g>
</svg>