<?xml version="1.0" encoding="UTF-8" standalone="no"?>
<svg width="24px" height="16px" viewBox="0 0 24 16" version="1.1" xmlns="http://www.w3.org/2000/svg" xmlns:xlink="http://www.w3.org/1999/xlink">
    <!-- Generator: Sketch 3.8.1 (29687) - http://www.bohemiancoding.com/sketch -->
    <title>Shape</title>
    <desc>Created with Sketch.</desc>
    <defs></defs>
    <g id="Page-1" stroke="none" stroke-width="1" fill="none" fill-rule="evenodd">
        <g id="Group" transform="translate(-133.000000, -52.000000)" stroke="#FFFFFF">
            <path d="M156.5,66 C156.5,66.828 155.828,67.5 155,67.5 L135,67.5 C134.172,67.5 133.5,66.828 133.5,66 L133.5,54 C133.5,53.172 134.172,52.5 135,52.5 L155,52.5 C155.828,52.5 156.5,53.172 156.5,54 L156.5,66 L156.5,66 Z M153.5,56.5 L145,62 L136.5,56.5 L153.5,56.5 Z M136.5,64 L140,62 L136.5,64 Z M153.5,64 L150,62 L153.5,64 Z" id="Shape"></path>
        </g>
    </g>
</svg>