<?xml version="1.0" encoding="UTF-8" standalone="no"?>
<svg width="769px" height="81px" viewBox="0 0 769 81" version="1.1" xmlns="http://www.w3.org/2000/svg" xmlns:xlink="http://www.w3.org/1999/xlink">
    <!-- Generator: Sketch 3.8.1 (29687) - http://www.bohemiancoding.com/sketch -->
    <title>BW logo</title>
    <desc>Created with Sketch.</desc>
    <defs></defs>
    <g id="Page-1" stroke="none" stroke-width="1" fill="none" fill-rule="evenodd">
        <g id="BW-logo">
            <path d="M77.0703125,1.45399999 C77.0703125,1.45399999 96.144,45.066 104.679,64.59 C105.784,62.394 119.405002,32.3056642 119.405002,32.3056642 L106.49,1.636 L117.263671,1.454 C117.263671,1.454 143.241,61.987 144.523,64.766 C145.77,62.017 171.988284,1.45400003 171.988284,1.45400003 L182.617,1.53 L148.394534,79.4306604 L138.986331,79.4306604 C138.986331,79.4306604 129.772,56.243 124.638,44.514 C123.404,47.067 109.412108,79.4306604 109.412108,79.4306604 L100.164062,79.4306604 L67.158,1.454 L77.0703125,1.45399999 Z" id="Fill-5" fill="#D90429"></path>
            <path d="M10.317,34.543 C10.317,34.543 13.019,34.545 14.412,34.588 C22.878,34.848 31.383,35.1 39.821,34.543 C44.309,34.246 48.9949987,34.5478406 52.8609987,32.3608406 C59.4579987,28.6298406 59.315,17.499 52.861,13.499 C50.669,12.141 47.968,10.914 45.47,10.853 C34.052,10.574 22.624,10.731 10.317,10.731 C10.317,17.859 10.317,34.543 10.317,34.543 Z M10.556,71.117 C19.592,71.117 28.061,71.218 36.525,71.074 C40.657,71.004 44.883,70.943 48.884,70.057 C56.336,68.408 60.272,63.712 60.262,57.507 C60.253,51.041 56.728,45.806 48.943,45.183 C36.32,44.172 23.557,44.911 10.556,44.911 L10.556,71.117 L10.556,71.117 Z M69.528,61.5 C67.816,71.513 59.54,78.85 47.314,79.682 C32.884,80.663 0.709000001,80.6709977 0.709000001,80.6709977 L0.709000001,1.20100001 C0.709000001,1.20100001 31.004,0.676 44.31,1.201 C59.359,1.794 68.824,11.596 66.952,24.957 C66.272,29.808 62.733,34.259 60.291,39.323 C67.801,43.872 71.207,51.683 69.528,61.5 Z" id="Fill-7" fill="#D90429"></path>
            <path d="M768.503927,79.6200071 C766.951817,79.6200129 221.432333,79.6200035 221.432333,79.6200035 L255.198684,0.944000002 C255.198684,0.944000002 764.360305,0.943152087 768.503927,0.944000002" id="Fill-11-Copy-3" fill="#D90429"></path>
            <path d="M213.808594,79.6200071 C212.259321,79.6200129 195.432333,79.6200035 195.432333,79.6200035 L229.136962,0.944000002 C229.136962,0.944000002 243.803407,0.943152087 247.939455,0.944000002" id="Fill-11-Copy-2" fill="#D90429"></path>
            <path d="M188.740234,79.6200071 C187.190961,79.6200129 172.432333,79.6200035 172.432333,79.6200035 L208.136962,0.944000002 C208.136962,0.944000002 218.376649,0.943152087 222.512697,0.944000002" id="Fill-11-Copy" fill="#D90429"></path>
            <path d="M165.648014,79.6200014 C164.042232,79.6200071 154.438477,79.6200035 154.438477,79.6200035 L189.372473,0.944000002 C189.372473,0.944000002 196.705278,0.943152087 200.992188,0.944000002" id="Fill-11" fill="#D90429"></path>
            <path d="M288.46,54 L288.46,42.795 L296.38,42.795 C302.635,42.795 306.19,38.475 306.19,33.39 C306.19,28.305 302.68,23.985 296.38,23.985 L283.195,23.985 L283.195,54 L288.46,54 Z M295.66,38.16 L288.46,38.16 L288.46,28.62 L295.66,28.62 C298.63,28.62 300.79,30.51 300.79,33.39 C300.79,36.27 298.63,38.16 295.66,38.16 L295.66,38.16 Z M337.119998,54 L337.119998,49.365 L321.819998,49.365 L321.819998,41.04 L336.804998,41.04 L336.804998,36.405 L321.819998,36.405 L321.819998,28.62 L337.119998,28.62 L337.119998,23.985 L316.554998,23.985 L316.554998,54 L337.119998,54 Z M358.779996,54.54 C366.879996,54.54 370.389996,50.265 370.389996,45.27 C370.389996,34.065 352.929996,37.53 352.929996,31.95 C352.929996,29.7 354.909996,28.215 358.014996,28.215 C361.164996,28.215 364.359996,29.295 366.699996,31.635 L369.714996,27.72 C366.924996,25.02 363.144996,23.535 358.464996,23.535 C351.894996,23.535 347.529996,27.36 347.529996,32.31 C347.529996,43.38 365.034996,39.465 365.034996,45.765 C365.034996,47.745 363.324996,49.86 359.004996,49.86 C354.819996,49.86 351.579996,47.925 349.509996,45.72 L346.584996,49.77 C349.239996,52.605 353.244996,54.54 358.779996,54.54 L358.779996,54.54 Z M393.219994,54 L393.219994,28.62 L402.309994,28.62 L402.309994,23.985 L378.864994,23.985 L378.864994,28.62 L387.954994,28.62 L387.954994,54 L393.219994,54 Z M440.58999,54.54 C448.68999,54.54 452.19999,50.265 452.19999,45.27 C452.19999,34.065 434.73999,37.53 434.73999,31.95 C434.73999,29.7 436.71999,28.215 439.82499,28.215 C442.97499,28.215 446.16999,29.295 448.50999,31.635 L451.52499,27.72 C448.73499,25.02 444.95499,23.535 440.27499,23.535 C433.70499,23.535 429.33999,27.36 429.33999,32.31 C429.33999,43.38 446.84499,39.465 446.84499,45.765 C446.84499,47.745 445.13499,49.86 440.81499,49.86 C436.62999,49.86 433.38999,47.925 431.31999,45.72 L428.39499,49.77 C431.04999,52.605 435.05499,54.54 440.58999,54.54 L440.58999,54.54 Z M477.054989,54.54 C486.054989,54.54 492.399989,47.97 492.399989,39.015 C492.399989,30.06 486.054989,23.49 477.054989,23.49 C468.054989,23.49 461.709989,30.06 461.709989,39.015 C461.709989,47.97 468.054989,54.54 477.054989,54.54 L477.054989,54.54 Z M477.054989,49.86 C470.979989,49.86 467.109989,45.18 467.109989,39.015 C467.109989,32.805 470.979989,28.17 477.054989,28.17 C483.084989,28.17 486.999989,32.805 486.999989,39.015 C486.999989,45.18 483.084989,49.86 477.054989,49.86 L477.054989,49.86 Z M521.979987,54 L521.979987,49.365 L508.749987,49.365 L508.749987,23.985 L503.484987,23.985 L503.484987,54 L521.979987,54 Z M544.629985,54.54 C553.314985,54.54 557.589985,49.59 557.589985,42.12 L557.589985,23.985 L552.279985,23.985 L552.279985,41.985 C552.279985,46.755 549.624985,49.86 544.629985,49.86 C539.589985,49.86 536.934985,46.755 536.934985,41.985 L536.934985,23.985 L531.624985,23.985 L531.624985,42.165 C531.624985,49.545 535.899985,54.54 544.629985,54.54 L544.629985,54.54 Z M582.399983,54 L582.399983,28.62 L591.489983,28.62 L591.489983,23.985 L568.044983,23.985 L568.044983,28.62 L577.134983,28.62 L577.134983,54 L582.399983,54 Z M607.209981,54 L607.209981,23.985 L601.944981,23.985 L601.944981,54 L607.209981,54 Z M633.594979,54.54 C642.594979,54.54 648.939979,47.97 648.939979,39.015 C648.939979,30.06 642.594979,23.49 633.594979,23.49 C624.594979,23.49 618.249979,30.06 618.249979,39.015 C618.249979,47.97 624.594979,54.54 633.594979,54.54 L633.594979,54.54 Z M633.594979,49.86 C627.519979,49.86 623.649979,45.18 623.649979,39.015 C623.649979,32.805 627.519979,28.17 633.594979,28.17 C639.624979,28.17 643.539979,32.805 643.539979,39.015 C643.539979,45.18 639.624979,49.86 633.594979,49.86 L633.594979,49.86 Z M686.034977,54 L686.034977,23.985 L680.769977,23.985 L680.769977,44.82 L665.424977,23.985 L660.024977,23.985 L660.024977,54 L665.289977,54 L665.289977,32.58 L680.949977,54 L686.034977,54 Z M708.684975,54.54 C716.784975,54.54 720.294975,50.265 720.294975,45.27 C720.294975,34.065 702.834975,37.53 702.834975,31.95 C702.834975,29.7 704.814975,28.215 707.919975,28.215 C711.069975,28.215 714.264975,29.295 716.604975,31.635 L719.619975,27.72 C716.829975,25.02 713.049975,23.535 708.369975,23.535 C701.799975,23.535 697.434975,27.36 697.434975,32.31 C697.434975,43.38 714.939975,39.465 714.939975,45.765 C714.939975,47.745 713.229975,49.86 708.909975,49.86 C704.724975,49.86 701.484975,47.925 699.414975,45.72 L696.489975,49.77 C699.144975,52.605 703.149975,54.54 708.684975,54.54 L708.684975,54.54 Z" id="PEST-SOLUTIONS" fill="#FFFFFF"></path>
        </g>
    </g>
</svg>